<svg width="512" height="512" viewBox="0 0 512 512" fill="none" xmlns="http://www.w3.org/2000/svg">
<rect width="512" height="512" rx="256" fill="#A88657"/>
<path d="M266.973 399.32C257.613 399.32 248.013 398 238.173 395.36C228.333 392.72 219.453 389.84 211.533 386.72C203.853 383.6 198.213 381.32 194.613 379.88C189.093 377.24 184.293 377.84 180.213 381.68C178.533 383.36 176.733 385.04 174.813 386.72C172.893 388.16 171.333 389.48 170.133 390.68C167.733 392.6 165.453 393.2 163.293 392.48C161.133 391.52 160.053 389.6 160.053 386.72V321.2C160.053 318.32 161.613 316.64 164.733 316.16C167.853 315.44 169.773 316.4 170.493 319.04C174.813 331.76 181.893 343.16 191.733 353.24C201.813 363.08 213.573 370.76 227.013 376.28C240.453 381.8 254.493 384.56 269.133 384.56C281.613 384.56 292.293 381.92 301.173 376.64C310.293 371.12 317.373 364.4 322.413 356.48C327.453 348.32 329.973 340.4 329.973 332.72C329.973 320.96 326.973 311.6 320.973 304.64C314.973 297.68 307.053 292.28 297.213 288.44C287.373 284.6 276.573 281.48 264.813 279.08C253.053 276.44 241.293 273.68 229.533 270.8C217.773 267.68 206.973 263.6 197.133 258.56C187.293 253.28 179.373 246.08 173.373 236.96C167.373 227.84 164.373 215.84 164.373 200.96C164.373 187.28 167.613 175.04 174.093 164.24C180.813 153.44 190.293 144.92 202.533 138.68C214.773 132.44 229.533 129.32 246.813 129.32C254.253 129.32 261.933 130.4 269.853 132.56C278.013 134.48 285.573 136.88 292.533 139.76C299.493 142.4 304.773 144.8 308.373 146.96C313.893 150.08 318.453 150.2 322.053 147.32C323.253 146.12 324.573 145.04 326.013 144.08C327.453 142.88 328.653 141.92 329.613 141.2C332.013 139.52 334.173 139.16 336.093 140.12C338.253 141.08 339.333 143 339.333 145.88V203.48C339.333 206.36 337.773 208.16 334.653 208.88C331.533 209.36 329.493 208.4 328.533 206C323.973 194 317.733 183.2 309.813 173.6C301.893 164 292.653 156.44 282.093 150.92C271.533 145.16 259.773 142.28 246.813 142.28C236.493 142.28 227.013 144.44 218.373 148.76C209.733 152.84 202.773 158.6 197.493 166.04C192.453 173.48 189.933 182 189.933 191.6C189.933 202.64 192.933 211.4 198.933 217.88C204.933 224.12 212.853 229.04 222.693 232.64C232.533 236.24 243.333 239.36 255.093 242C267.093 244.4 278.973 247.16 290.733 250.28C302.733 253.4 313.653 257.84 323.493 263.6C333.333 269.36 341.253 277.16 347.253 287C353.253 296.84 356.253 309.8 356.253 325.88C356.253 337.4 353.613 347.72 348.333 356.84C343.053 365.96 336.093 373.76 327.453 380.24C318.813 386.48 309.213 391.28 298.653 394.64C288.093 397.76 277.533 399.32 266.973 399.32Z" fill="white"/>
</svg>
